#VRML V2.0 utf8
Transform {
  translation 0.000000 0.000000 0.275591
  children [ Shape {
    appearance Appearance { material Material {
      diffuseColor 0.060 0.060 0.060
      specularColor 0.100 0.100 0.100
      shininess 0.10
    } }
    geometry Box { size 2.047244 2.047244 0.551181 }
  } ]
}
Transform {
  translation 0.000000 0.000000 0.590551
  children [ Shape {
    appearance Appearance { material Material {
      diffuseColor 0.650 0.650 0.680
      specularColor 0.100 0.100 0.100
      shininess 0.10
    } }
    geometry Box { size 1.968504 1.968504 0.078740 }
  } ]
}
Shape {
  appearance Appearance { material Material {
    diffuseColor 0.060 0.060 0.060
    specularColor 0.200 0.200 0.200
    shininess 0.20
  } }
  geometry IndexedFaceSet {
    coord Coordinate { point [ 0.511811 -0.000000 0.629921, 0.507432 -0.066805 0.629921, 0.494371 -0.132466 0.629921, 0.472852 -0.195862 0.629921, 0.443241 -0.255906 0.629921, 0.406047 -0.311571 0.629921, 0.361905 -0.361905 0.629921, 0.311571 -0.406047 0.629921, 0.255906 -0.443241 0.629921, 0.195862 -0.472852 0.629921, 0.132466 -0.494371 0.629921, 0.066805 -0.507432 0.629921, 0.000000 -0.511811 0.629921, -0.066805 -0.507432 0.629921, -0.132466 -0.494371 0.629921, -0.195862 -0.472852 0.629921, -0.255906 -0.443241 0.629921, -0.311571 -0.406047 0.629921, -0.361905 -0.361905 0.629921, -0.406047 -0.311571 0.629921, -0.443241 -0.255906 0.629921, -0.472852 -0.195862 0.629921, -0.494371 -0.132466 0.629921, -0.507432 -0.066805 0.629921, -0.511811 -0.000000 0.629921, -0.507432 0.066805 0.629921, -0.494371 0.132466 0.629921, -0.472852 0.195862 0.629921, -0.443241 0.255906 0.629921, -0.406047 0.311571 0.629921, -0.361905 0.361905 0.629921, -0.311571 0.406047 0.629921, -0.255906 0.443241 0.629921, -0.195862 0.472852 0.629921, -0.132466 0.494371 0.629921, -0.066805 0.507432 0.629921, -0.000000 0.511811 0.629921, 0.066805 0.507432 0.629921, 0.132466 0.494371 0.629921, 0.195862 0.472852 0.629921, 0.255906 0.443241 0.629921, 0.311571 0.406047 0.629921, 0.361905 0.361905 0.629921, 0.406047 0.311571 0.629921, 0.443241 0.255906 0.629921, 0.472852 0.195862 0.629921, 0.494371 0.132466 0.629921, 0.507432 0.066805 0.629921, 0.511811 -0.000000 0.984252, 0.507432 -0.066805 0.984252, 0.494371 -0.132466 0.984252, 0.472852 -0.195862 0.984252, 0.443241 -0.255906 0.984252, 0.406047 -0.311571 0.984252, 0.361905 -0.361905 0.984252, 0.311571 -0.406047 0.984252, 0.255906 -0.443241 0.984252, 0.195862 -0.472852 0.984252, 0.132466 -0.494371 0.984252, 0.066805 -0.507432 0.984252, 0.000000 -0.511811 0.984252, -0.066805 -0.507432 0.984252, -0.132466 -0.494371 0.984252, -0.195862 -0.472852 0.984252, -0.255906 -0.443241 0.984252, -0.311571 -0.406047 0.984252, -0.361905 -0.361905 0.984252, -0.406047 -0.311571 0.984252, -0.443241 -0.255906 0.984252, -0.472852 -0.195862 0.984252, -0.494371 -0.132466 0.984252, -0.507432 -0.066805 0.984252, -0.511811 -0.000000 0.984252, -0.507432 0.066805 0.984252, -0.494371 0.132466 0.984252, -0.472852 0.195862 0.984252, -0.443241 0.255906 0.984252, -0.406047 0.311571 0.984252, -0.361905 0.361905 0.984252, -0.311571 0.406047 0.984252, -0.255906 0.443241 0.984252, -0.195862 0.472852 0.984252, -0.132466 0.494371 0.984252, -0.066805 0.507432 0.984252, -0.000000 0.511811 0.984252, 0.066805 0.507432 0.984252, 0.132466 0.494371 0.984252, 0.195862 0.472852 0.984252, 0.255906 0.443241 0.984252, 0.311571 0.406047 0.984252, 0.361905 0.361905 0.984252, 0.406047 0.311571 0.984252, 0.443241 0.255906 0.984252, 0.472852 0.195862 0.984252, 0.494371 0.132466 0.984252, 0.507432 0.066805 0.984252 ] }
    coordIndex [ 0, 1, 49, 48, -1, 1, 2, 50, 49, -1, 2, 3, 51, 50, -1, 3, 4, 52, 51, -1, 4, 5, 53, 52, -1, 5, 6, 54, 53, -1, 6, 7, 55, 54, -1, 7, 8, 56, 55, -1, 8, 9, 57, 56, -1, 9, 10, 58, 57, -1, 10, 11, 59, 58, -1, 11, 12, 60, 59, -1, 12, 13, 61, 60, -1, 13, 14, 62, 61, -1, 14, 15, 63, 62, -1, 15, 16, 64, 63, -1, 16, 17, 65, 64, -1, 17, 18, 66, 65, -1, 18, 19, 67, 66, -1, 19, 20, 68, 67, -1, 20, 21, 69, 68, -1, 21, 22, 70, 69, -1, 22, 23, 71, 70, -1, 23, 24, 72, 71, -1, 24, 25, 73, 72, -1, 25, 26, 74, 73, -1, 26, 27, 75, 74, -1, 27, 28, 76, 75, -1, 28, 29, 77, 76, -1, 29, 30, 78, 77, -1, 30, 31, 79, 78, -1, 31, 32, 80, 79, -1, 32, 33, 81, 80, -1, 33, 34, 82, 81, -1, 34, 35, 83, 82, -1, 35, 36, 84, 83, -1, 36, 37, 85, 84, -1, 37, 38, 86, 85, -1, 38, 39, 87, 86, -1, 39, 40, 88, 87, -1, 40, 41, 89, 88, -1, 41, 42, 90, 89, -1, 42, 43, 91, 90, -1, 43, 44, 92, 91, -1, 44, 45, 93, 92, -1, 45, 46, 94, 93, -1, 46, 47, 95, 94, -1, 47, 0, 48, 95, -1, 47, 46, 45, 44, 43, 42, 41, 40, 39, 38, 37, 36, 35, 34, 33, 32, 31, 30, 29, 28, 27, 26, 25, 24, 23, 22, 21, 20, 19, 18, 17, 16, 15, 14, 13, 12, 11, 10, 9, 8, 7, 6, 5, 4, 3, 2, 1, 0, -1, 48, 49, 50, 51, 52, 53, 54, 55, 56, 57, 58, 59, 60, 61, 62, 63, 64, 65, 66, 67, 68, 69, 70, 71, 72, 73, 74, 75, 76, 77, 78, 79, 80, 81, 82, 83, 84, 85, 86, 87, 88, 89, 90, 91, 92, 93, 94, 95, -1 ]
  }
}
