<svg xmlns="http://www.w3.org/2000/svg" width="1200" height="800" viewBox="0 0 1200 800"><rect width="1200" height="800" fill="#fff"/><g font-family="sans-serif"><text x="30" y="38" font-size="25" fill="#14213d">Integrated v3.4 USB routing - native CAD before / after</text><text x="30" y="78" font-size="23">Before</text><text x="30" y="108" font-size="18">Mismatch A: 2.309 mm / B: 1.981 mm</text><defs><clipPath id="c00"><rect x="30" y="150" width="72" height="486"/></clipPath></defs><g clip-path="url(#c00)"><rect x="30" y="150" width="72" height="486" fill="#f8fafc"/><rect x="71.85000000000005" y="552.3" width="5.3999999999999995" height="11.924999999999999" fill="#fecaca" stroke="#64748b" stroke-width="1"/><rect x="54.75" y="552.3" width="5.3999999999999995" height="11.924999999999999" fill="#bfdbfe" stroke="#64748b" stroke-width="1"/><rect x="54.75" y="572.7750000000001" width="5.3999999999999995" height="11.924999999999999" fill="#bfdbfe" stroke="#64748b" stroke-width="1"/><rect x="63.300000000000026" y="572.7750000000001" width="5.3999999999999995" height="11.924999999999999" fill="#e2e8f0" stroke="#64748b" stroke-width="1"/><rect x="71.85000000000005" y="572.7750000000001" width="5.3999999999999995" height="11.924999999999999" fill="#fecaca" stroke="#64748b" stroke-width="1"/><rect x="41.25" y="597.57" width="5.3999999999999995" height="13.049999999999999" fill="#e2e8f0" stroke="#64748b" stroke-width="1"/><rect x="62.39999999999995" y="597.57" width="2.6999999999999997" height="13.049999999999999" fill="#fecaca" stroke="#64748b" stroke-width="1"/><rect x="66.89999999999995" y="597.57" width="2.6999999999999997" height="13.049999999999999" fill="#bfdbfe" stroke="#64748b" stroke-width="1"/><rect x="85.35000000000005" y="597.57" width="5.3999999999999995" height="13.049999999999999" fill="#e2e8f0" stroke="#64748b" stroke-width="1"/><rect x="85.35000000000005" y="597.57" width="5.3999999999999995" height="13.049999999999999" fill="#e2e8f0" stroke="#64748b" stroke-width="1"/><rect x="71.39999999999995" y="597.57" width="2.6999999999999997" height="13.049999999999999" fill="#fecaca" stroke="#64748b" stroke-width="1"/><rect x="57.89999999999995" y="597.57" width="2.6999999999999997" height="13.049999999999999" fill="#bfdbfe" stroke="#64748b" stroke-width="1"/><rect x="41.25" y="597.57" width="5.3999999999999995" height="13.049999999999999" fill="#e2e8f0" stroke="#64748b" stroke-width="1"/><rect x="43.5" y="163.77" width="13.5" height="8.1" fill="#bfdbfe" stroke="#64748b" stroke-width="1"/><rect x="43.5" y="175.2" width="13.5" height="8.1" fill="#fecaca" stroke="#64748b" stroke-width="1"/><path d="M72.75 623.4 L72.75 604.095" fill="none" stroke="#b91c1c" stroke-width="1.8" stroke-linecap="round"/><path d="M74.55000000000003 558.2579999999999 L74.55000000000003 578.7420000000001" fill="none" stroke="#b91c1c" stroke-width="3.15" stroke-linecap="round"/><path d="M63.75 623.4 L72.75 623.4" fill="none" stroke="#b91c1c" stroke-width="1.8" stroke-linecap="round"/><path d="M72.75 590.1 L74.55000000000003 578.7420000000001" fill="none" stroke="#b91c1c" stroke-width="3.15" stroke-linecap="round"/><path d="M50.25 196.8 L50.25 179.25" fill="none" stroke="#b91c1c" stroke-width="3.15" stroke-linecap="round"/><path d="M55.199999999999974 519 L55.199999999999974 206.7" fill="none" stroke="#b91c1c" stroke-width="3.15" stroke-linecap="round"/><path d="M74.55000000000003 558.2625 L74.55000000000003 558.2579999999999" fill="none" stroke="#b91c1c" stroke-width="2.25" stroke-linecap="round"/><path d="M74.55000000000003 578.7375 L74.55000000000003 578.7420000000001" fill="none" stroke="#b91c1c" stroke-width="2.25" stroke-linecap="round"/><path d="M55.199999999999974 206.7 L50.25 196.8" fill="none" stroke="#b91c1c" stroke-width="3.15" stroke-linecap="round"/><path d="M77.69999999999997 546 L55.199999999999974 519" fill="none" stroke="#b91c1c" stroke-width="3.15" stroke-linecap="round"/><path d="M74.55000000000003 558.2579999999999 L77.69999999999997 546" fill="none" stroke="#b91c1c" stroke-width="3.15" stroke-linecap="round"/><path d="M72.75 604.095 L72.75 590.1" fill="none" stroke="#b91c1c" stroke-width="1.8" stroke-linecap="round"/><path d="M63.75 604.095 L63.75 623.4" fill="none" stroke="#b91c1c" stroke-width="1.8" stroke-linecap="round"/><path d="M57.449999999999974 578.7420000000001 L59.25 590.1" fill="none" stroke="#1d4ed8" stroke-width="3.15" stroke-linecap="round"/><path d="M57.449999999999974 578.7375 L57.449999999999974 578.7420000000001" fill="none" stroke="#1d4ed8" stroke-width="2.25" stroke-linecap="round"/><path d="M39.89999999999995 210.3 L49.800000000000026 220.2" fill="none" stroke="#1d4ed8" stroke-width="3.15" stroke-linecap="round"/><path d="M57.449999999999974 558.2579999999999 L57.449999999999974 578.7420000000001" fill="none" stroke="#1d4ed8" stroke-width="3.15" stroke-linecap="round"/><path d="M59.25 604.095 L59.25 590.1" fill="none" stroke="#1d4ed8" stroke-width="1.8" stroke-linecap="round"/><path d="M49.800000000000026 220.2 L49.800000000000026 541.5" fill="none" stroke="#1d4ed8" stroke-width="3.15" stroke-linecap="round"/><path d="M68.25 590.1 L68.25 604.095" fill="none" stroke="#1d4ed8" stroke-width="1.8" stroke-linecap="round"/><path d="M57.449999999999974 558.2625 L57.449999999999974 558.2579999999999" fill="none" stroke="#1d4ed8" stroke-width="2.25" stroke-linecap="round"/><path d="M59.25 590.1 L68.25 590.1" fill="none" stroke="#1d4ed8" stroke-width="1.8" stroke-linecap="round"/><path d="M49.800000000000026 541.5 L57.449999999999974 558.2579999999999" fill="none" stroke="#1d4ed8" stroke-width="3.15" stroke-linecap="round"/><path d="M50.25 167.81999999999996 L39.89999999999995 167.81999999999996" fill="none" stroke="#1d4ed8" stroke-width="3.15" stroke-linecap="round"/><path d="M39.89999999999995 167.81999999999996 L39.89999999999995 210.3" fill="none" stroke="#1d4ed8" stroke-width="3.15" stroke-linecap="round"/></g><defs><clipPath id="c01"><rect x="210" y="210" width="160" height="320"/></clipPath></defs><g clip-path="url(#c01)"><rect x="210" y="210" width="160" height="320" fill="#f8fafc"/><rect x="310.8000000000002" y="232.4000000000001" width="19.2" height="42.4" fill="#fecaca" stroke="#64748b" stroke-width="1"/><rect x="250.0" y="232.4000000000001" width="19.2" height="42.4" fill="#bfdbfe" stroke="#64748b" stroke-width="1"/><rect x="250.0" y="305.2000000000003" width="19.2" height="42.4" fill="#bfdbfe" stroke="#64748b" stroke-width="1"/><rect x="280.4000000000001" y="305.2000000000003" width="19.2" height="42.4" fill="#e2e8f0" stroke="#64748b" stroke-width="1"/><rect x="310.8000000000002" y="305.2000000000003" width="19.2" height="42.4" fill="#fecaca" stroke="#64748b" stroke-width="1"/><rect x="202.0" y="393.3600000000001" width="19.2" height="46.4" fill="#e2e8f0" stroke="#64748b" stroke-width="1"/><rect x="277.1999999999998" y="393.3600000000001" width="9.6" height="46.4" fill="#fecaca" stroke="#64748b" stroke-width="1"/><rect x="293.1999999999998" y="393.3600000000001" width="9.6" height="46.4" fill="#bfdbfe" stroke="#64748b" stroke-width="1"/><rect x="358.8000000000002" y="393.3600000000001" width="19.2" height="46.4" fill="#e2e8f0" stroke="#64748b" stroke-width="1"/><rect x="358.8000000000002" y="393.3600000000001" width="19.2" height="46.4" fill="#e2e8f0" stroke="#64748b" stroke-width="1"/><rect x="309.1999999999998" y="393.3600000000001" width="9.6" height="46.4" fill="#fecaca" stroke="#64748b" stroke-width="1"/><rect x="261.1999999999998" y="393.3600000000001" width="9.6" height="46.4" fill="#bfdbfe" stroke="#64748b" stroke-width="1"/><rect x="202.0" y="393.3600000000001" width="19.2" height="46.4" fill="#e2e8f0" stroke="#64748b" stroke-width="1"/><rect x="210.0" y="-1149.04" width="48.0" height="28.8" fill="#bfdbfe" stroke="#64748b" stroke-width="1"/><rect x="210.0" y="-1108.4" width="48.0" height="28.8" fill="#fecaca" stroke="#64748b" stroke-width="1"/><path d="M314.0 485.1999999999998 L314.0 416.55999999999995" fill="none" stroke="#b91c1c" stroke-width="6.4" stroke-linecap="round"/><path d="M320.4000000000001 253.58399999999983 L320.4000000000001 326.41600000000017" fill="none" stroke="#b91c1c" stroke-width="11.2" stroke-linecap="round"/><path d="M282.0 485.1999999999998 L314.0 485.1999999999998" fill="none" stroke="#b91c1c" stroke-width="6.4" stroke-linecap="round"/><path d="M314.0 366.8000000000002 L320.4000000000001 326.41600000000017" fill="none" stroke="#b91c1c" stroke-width="11.2" stroke-linecap="round"/><path d="M234.0 -1031.6 L234.0 -1094.0" fill="none" stroke="#b91c1c" stroke-width="11.2" stroke-linecap="round"/><path d="M251.5999999999999 114 L251.5999999999999 -996.4000000000001" fill="none" stroke="#b91c1c" stroke-width="11.2" stroke-linecap="round"/><path d="M320.4000000000001 253.5999999999999 L320.4000000000001 253.58399999999983" fill="none" stroke="#b91c1c" stroke-width="8.0" stroke-linecap="round"/><path d="M320.4000000000001 326.4000000000001 L320.4000000000001 326.41600000000017" fill="none" stroke="#b91c1c" stroke-width="8.0" stroke-linecap="round"/><path d="M251.5999999999999 -996.4000000000001 L234.0 -1031.6" fill="none" stroke="#b91c1c" stroke-width="11.2" stroke-linecap="round"/><path d="M331.5999999999999 210 L251.5999999999999 114" fill="none" stroke="#b91c1c" stroke-width="11.2" stroke-linecap="round"/><path d="M320.4000000000001 253.58399999999983 L331.5999999999999 210" fill="none" stroke="#b91c1c" stroke-width="11.2" stroke-linecap="round"/><path d="M314.0 416.55999999999995 L314.0 366.8000000000002" fill="none" stroke="#b91c1c" stroke-width="6.4" stroke-linecap="round"/><path d="M282.0 416.55999999999995 L282.0 485.1999999999998" fill="none" stroke="#b91c1c" stroke-width="6.4" stroke-linecap="round"/><path d="M259.5999999999999 326.41600000000017 L266.0 366.8000000000002" fill="none" stroke="#1d4ed8" stroke-width="11.2" stroke-linecap="round"/><path d="M259.5999999999999 326.4000000000001 L259.5999999999999 326.41600000000017" fill="none" stroke="#1d4ed8" stroke-width="8.0" stroke-linecap="round"/><path d="M197.19999999999982 -983.5999999999999 L232.4000000000001 -948.4000000000001" fill="none" stroke="#1d4ed8" stroke-width="11.2" stroke-linecap="round"/><path d="M259.5999999999999 253.58399999999983 L259.5999999999999 326.41600000000017" fill="none" stroke="#1d4ed8" stroke-width="11.2" stroke-linecap="round"/><path d="M266.0 416.55999999999995 L266.0 366.8000000000002" fill="none" stroke="#1d4ed8" stroke-width="6.4" stroke-linecap="round"/><path d="M232.4000000000001 -948.4000000000001 L232.4000000000001 194.0" fill="none" stroke="#1d4ed8" stroke-width="11.2" stroke-linecap="round"/><path d="M298.0 366.8000000000002 L298.0 416.55999999999995" fill="none" stroke="#1d4ed8" stroke-width="6.4" stroke-linecap="round"/><path d="M259.5999999999999 253.5999999999999 L259.5999999999999 253.58399999999983" fill="none" stroke="#1d4ed8" stroke-width="8.0" stroke-linecap="round"/><path d="M266.0 366.8000000000002 L298.0 366.8000000000002" fill="none" stroke="#1d4ed8" stroke-width="6.4" stroke-linecap="round"/><path d="M232.4000000000001 194.0 L259.5999999999999 253.58399999999983" fill="none" stroke="#1d4ed8" stroke-width="11.2" stroke-linecap="round"/><path d="M234.0 -1134.64 L197.19999999999982 -1134.64" fill="none" stroke="#1d4ed8" stroke-width="11.2" stroke-linecap="round"/><path d="M197.19999999999982 -1134.64 L197.19999999999982 -983.5999999999999" fill="none" stroke="#1d4ed8" stroke-width="11.2" stroke-linecap="round"/></g><text x="200" y="180" font-size="17">USB-C / U4 fan-out zoom</text><text x="610" y="78" font-size="23">After</text><text x="610" y="108" font-size="18">Mismatch A: 0.795 mm / B: 0.795 mm</text><defs><clipPath id="c10"><rect x="610" y="150" width="72" height="486"/></clipPath></defs><g clip-path="url(#c10)"><rect x="610" y="150" width="72" height="486" fill="#f8fafc"/><rect x="651.85" y="552.3" width="5.3999999999999995" height="11.924999999999999" fill="#fecaca" stroke="#64748b" stroke-width="1"/><rect x="634.75" y="552.3" width="5.3999999999999995" height="11.924999999999999" fill="#bfdbfe" stroke="#64748b" stroke-width="1"/><rect x="634.75" y="572.7750000000001" width="5.3999999999999995" height="11.924999999999999" fill="#bfdbfe" stroke="#64748b" stroke-width="1"/><rect x="643.3000000000001" y="572.7750000000001" width="5.3999999999999995" height="11.924999999999999" fill="#e2e8f0" stroke="#64748b" stroke-width="1"/><rect x="651.85" y="572.7750000000001" width="5.3999999999999995" height="11.924999999999999" fill="#fecaca" stroke="#64748b" stroke-width="1"/><rect x="621.25" y="597.57" width="5.3999999999999995" height="13.049999999999999" fill="#e2e8f0" stroke="#64748b" stroke-width="1"/><rect x="642.4" y="597.57" width="2.6999999999999997" height="13.049999999999999" fill="#fecaca" stroke="#64748b" stroke-width="1"/><rect x="646.9" y="597.57" width="2.6999999999999997" height="13.049999999999999" fill="#bfdbfe" stroke="#64748b" stroke-width="1"/><rect x="665.35" y="597.57" width="5.3999999999999995" height="13.049999999999999" fill="#e2e8f0" stroke="#64748b" stroke-width="1"/><rect x="665.35" y="597.57" width="5.3999999999999995" height="13.049999999999999" fill="#e2e8f0" stroke="#64748b" stroke-width="1"/><rect x="651.4" y="597.57" width="2.6999999999999997" height="13.049999999999999" fill="#fecaca" stroke="#64748b" stroke-width="1"/><rect x="637.9" y="597.57" width="2.6999999999999997" height="13.049999999999999" fill="#bfdbfe" stroke="#64748b" stroke-width="1"/><rect x="621.25" y="597.57" width="5.3999999999999995" height="13.049999999999999" fill="#e2e8f0" stroke="#64748b" stroke-width="1"/><rect x="623.5" y="163.77" width="13.5" height="8.1" fill="#bfdbfe" stroke="#64748b" stroke-width="1"/><rect x="623.5" y="175.2" width="13.5" height="8.1" fill="#fecaca" stroke="#64748b" stroke-width="1"/><path d="M635.1999999999999 444.44372999999996 L635.1999999999999 519" fill="none" stroke="#b91c1c" stroke-width="3.15" stroke-linecap="round"/><path d="M652.75 613.5 L652.75 604.095" fill="none" stroke="#b91c1c" stroke-width="1.8" stroke-linecap="round"/><path d="M635.1999999999999 354.44372999999996 L635.1999999999999 411" fill="none" stroke="#b91c1c" stroke-width="3.15" stroke-linecap="round"/><path d="M654.5500000000001 558.2579999999999 L654.5500000000001 578.7420000000001" fill="none" stroke="#b91c1c" stroke-width="3.15" stroke-linecap="round"/><path d="M643.75 613.5 L652.75 613.5" fill="none" stroke="#b91c1c" stroke-width="1.8" stroke-linecap="round"/><path d="M641.64373 327.44372999999996 L641.64373 348" fill="none" stroke="#b91c1c" stroke-width="3.15" stroke-linecap="round"/><path d="M641.64373 417.44372999999996 L641.64373 438" fill="none" stroke="#b91c1c" stroke-width="3.15" stroke-linecap="round"/><path d="M652.75 590.1 L654.5500000000001 578.7420000000001" fill="none" stroke="#b91c1c" stroke-width="3.15" stroke-linecap="round"/><path d="M630.25 196.8 L630.25 179.25" fill="none" stroke="#b91c1c" stroke-width="3.15" stroke-linecap="round"/><path d="M635.1999999999999 411 L641.64373 417.44372999999996" fill="none" stroke="#b91c1c" stroke-width="3.15" stroke-linecap="round"/><path d="M635.1999999999999 206.7 L635.1999999999999 321" fill="none" stroke="#b91c1c" stroke-width="3.15" stroke-linecap="round"/><path d="M654.5500000000001 558.2625 L654.5500000000001 558.2579999999999" fill="none" stroke="#b91c1c" stroke-width="2.25" stroke-linecap="round"/><path d="M654.5500000000001 578.7375 L654.5500000000001 578.7420000000001" fill="none" stroke="#b91c1c" stroke-width="2.25" stroke-linecap="round"/><path d="M635.1999999999999 206.7 L630.25 196.8" fill="none" stroke="#b91c1c" stroke-width="3.15" stroke-linecap="round"/><path d="M641.64373 348 L635.1999999999999 354.44372999999996" fill="none" stroke="#b91c1c" stroke-width="3.15" stroke-linecap="round"/><path d="M635.1999999999999 321 L641.64373 327.44372999999996" fill="none" stroke="#b91c1c" stroke-width="3.15" stroke-linecap="round"/><path d="M657.6999999999999 546 L635.1999999999999 519" fill="none" stroke="#b91c1c" stroke-width="3.15" stroke-linecap="round"/><path d="M654.5500000000001 558.2579999999999 L657.6999999999999 546" fill="none" stroke="#b91c1c" stroke-width="3.15" stroke-linecap="round"/><path d="M652.75 604.095 L652.75 590.1" fill="none" stroke="#b91c1c" stroke-width="1.8" stroke-linecap="round"/><path d="M641.64373 438 L635.1999999999999 444.44372999999996" fill="none" stroke="#b91c1c" stroke-width="3.15" stroke-linecap="round"/><path d="M643.75 604.095 L643.75 613.5" fill="none" stroke="#b91c1c" stroke-width="1.8" stroke-linecap="round"/><path d="M637.4499999999999 578.7420000000001 L639.25 590.1" fill="none" stroke="#1d4ed8" stroke-width="3.15" stroke-linecap="round"/><path d="M637.4499999999999 578.7375 L637.4499999999999 578.7420000000001" fill="none" stroke="#1d4ed8" stroke-width="2.25" stroke-linecap="round"/><path d="M639.25 587.85 L639.25 590.1" fill="none" stroke="#1d4ed8" stroke-width="1.8" stroke-linecap="round"/><path d="M619.9 210.3 L629.8000000000001 220.2" fill="none" stroke="#1d4ed8" stroke-width="3.15" stroke-linecap="round"/><path d="M637.4499999999999 558.2579999999999 L637.4499999999999 578.7420000000001" fill="none" stroke="#1d4ed8" stroke-width="3.15" stroke-linecap="round"/><path d="M639.25 604.095 L639.25 590.1" fill="none" stroke="#1d4ed8" stroke-width="1.8" stroke-linecap="round"/><path d="M629.8000000000001 220.2 L629.8000000000001 541.5" fill="none" stroke="#1d4ed8" stroke-width="3.15" stroke-linecap="round"/><path d="M648.25 587.85 L648.25 604.095" fill="none" stroke="#1d4ed8" stroke-width="1.8" stroke-linecap="round"/><path d="M637.4499999999999 558.2625 L637.4499999999999 558.2579999999999" fill="none" stroke="#1d4ed8" stroke-width="2.25" stroke-linecap="round"/><path d="M639.25 587.85 L648.25 587.85" fill="none" stroke="#1d4ed8" stroke-width="1.8" stroke-linecap="round"/><path d="M629.8000000000001 541.5 L637.4499999999999 558.2579999999999" fill="none" stroke="#1d4ed8" stroke-width="3.15" stroke-linecap="round"/><path d="M630.25 167.81999999999996 L619.9 167.81999999999996" fill="none" stroke="#1d4ed8" stroke-width="3.15" stroke-linecap="round"/><path d="M619.9 167.81999999999996 L619.9 210.3" fill="none" stroke="#1d4ed8" stroke-width="3.15" stroke-linecap="round"/></g><defs><clipPath id="c11"><rect x="790" y="210" width="160" height="320"/></clipPath></defs><g clip-path="url(#c11)"><rect x="790" y="210" width="160" height="320" fill="#f8fafc"/><rect x="890.8000000000002" y="232.4000000000001" width="19.2" height="42.4" fill="#fecaca" stroke="#64748b" stroke-width="1"/><rect x="830.0" y="232.4000000000001" width="19.2" height="42.4" fill="#bfdbfe" stroke="#64748b" stroke-width="1"/><rect x="830.0" y="305.2000000000003" width="19.2" height="42.4" fill="#bfdbfe" stroke="#64748b" stroke-width="1"/><rect x="860.4000000000001" y="305.2000000000003" width="19.2" height="42.4" fill="#e2e8f0" stroke="#64748b" stroke-width="1"/><rect x="890.8000000000002" y="305.2000000000003" width="19.2" height="42.4" fill="#fecaca" stroke="#64748b" stroke-width="1"/><rect x="782.0" y="393.3600000000001" width="19.2" height="46.4" fill="#e2e8f0" stroke="#64748b" stroke-width="1"/><rect x="857.1999999999998" y="393.3600000000001" width="9.6" height="46.4" fill="#fecaca" stroke="#64748b" stroke-width="1"/><rect x="873.1999999999998" y="393.3600000000001" width="9.6" height="46.4" fill="#bfdbfe" stroke="#64748b" stroke-width="1"/><rect x="938.8000000000002" y="393.3600000000001" width="19.2" height="46.4" fill="#e2e8f0" stroke="#64748b" stroke-width="1"/><rect x="938.8000000000002" y="393.3600000000001" width="19.2" height="46.4" fill="#e2e8f0" stroke="#64748b" stroke-width="1"/><rect x="889.1999999999998" y="393.3600000000001" width="9.6" height="46.4" fill="#fecaca" stroke="#64748b" stroke-width="1"/><rect x="841.1999999999998" y="393.3600000000001" width="9.6" height="46.4" fill="#bfdbfe" stroke="#64748b" stroke-width="1"/><rect x="782.0" y="393.3600000000001" width="19.2" height="46.4" fill="#e2e8f0" stroke="#64748b" stroke-width="1"/><rect x="790.0" y="-1149.04" width="48.0" height="28.8" fill="#bfdbfe" stroke="#64748b" stroke-width="1"/><rect x="790.0" y="-1108.4" width="48.0" height="28.8" fill="#fecaca" stroke="#64748b" stroke-width="1"/><path d="M831.5999999999999 -151.08896000000004 L831.5999999999999 114" fill="none" stroke="#b91c1c" stroke-width="11.2" stroke-linecap="round"/><path d="M894.0 450.0 L894.0 416.55999999999995" fill="none" stroke="#b91c1c" stroke-width="6.4" stroke-linecap="round"/><path d="M831.5999999999999 -471.08896000000004 L831.5999999999999 -270" fill="none" stroke="#b91c1c" stroke-width="11.2" stroke-linecap="round"/><path d="M900.4000000000001 253.58399999999983 L900.4000000000001 326.41600000000017" fill="none" stroke="#b91c1c" stroke-width="11.2" stroke-linecap="round"/><path d="M862.0 450.0 L894.0 450.0" fill="none" stroke="#b91c1c" stroke-width="6.4" stroke-linecap="round"/><path d="M854.5110399999999 -567.08896 L854.5110399999999 -494" fill="none" stroke="#b91c1c" stroke-width="11.2" stroke-linecap="round"/><path d="M854.5110399999999 -247.08896000000004 L854.5110399999999 -174" fill="none" stroke="#b91c1c" stroke-width="11.2" stroke-linecap="round"/><path d="M894.0 366.8000000000002 L900.4000000000001 326.41600000000017" fill="none" stroke="#b91c1c" stroke-width="11.2" stroke-linecap="round"/><path d="M814.0 -1031.6 L814.0 -1094.0" fill="none" stroke="#b91c1c" stroke-width="11.2" stroke-linecap="round"/><path d="M831.5999999999999 -270 L854.5110399999999 -247.08896000000004" fill="none" stroke="#b91c1c" stroke-width="11.2" stroke-linecap="round"/><path d="M831.5999999999999 -996.4000000000001 L831.5999999999999 -590" fill="none" stroke="#b91c1c" stroke-width="11.2" stroke-linecap="round"/><path d="M900.4000000000001 253.5999999999999 L900.4000000000001 253.58399999999983" fill="none" stroke="#b91c1c" stroke-width="8.0" stroke-linecap="round"/><path d="M900.4000000000001 326.4000000000001 L900.4000000000001 326.41600000000017" fill="none" stroke="#b91c1c" stroke-width="8.0" stroke-linecap="round"/><path d="M831.5999999999999 -996.4000000000001 L814.0 -1031.6" fill="none" stroke="#b91c1c" stroke-width="11.2" stroke-linecap="round"/><path d="M854.5110399999999 -494 L831.5999999999999 -471.08896000000004" fill="none" stroke="#b91c1c" stroke-width="11.2" stroke-linecap="round"/><path d="M831.5999999999999 -590 L854.5110399999999 -567.08896" fill="none" stroke="#b91c1c" stroke-width="11.2" stroke-linecap="round"/><path d="M911.5999999999999 210 L831.5999999999999 114" fill="none" stroke="#b91c1c" stroke-width="11.2" stroke-linecap="round"/><path d="M900.4000000000001 253.58399999999983 L911.5999999999999 210" fill="none" stroke="#b91c1c" stroke-width="11.2" stroke-linecap="round"/><path d="M894.0 416.55999999999995 L894.0 366.8000000000002" fill="none" stroke="#b91c1c" stroke-width="6.4" stroke-linecap="round"/><path d="M854.5110399999999 -174 L831.5999999999999 -151.08896000000004" fill="none" stroke="#b91c1c" stroke-width="11.2" stroke-linecap="round"/><path d="M862.0 416.55999999999995 L862.0 450.0" fill="none" stroke="#b91c1c" stroke-width="6.4" stroke-linecap="round"/><path d="M839.5999999999999 326.41600000000017 L846.0 366.8000000000002" fill="none" stroke="#1d4ed8" stroke-width="11.2" stroke-linecap="round"/><path d="M839.5999999999999 326.4000000000001 L839.5999999999999 326.41600000000017" fill="none" stroke="#1d4ed8" stroke-width="8.0" stroke-linecap="round"/><path d="M846.0 358.8000000000002 L846.0 366.8000000000002" fill="none" stroke="#1d4ed8" stroke-width="6.4" stroke-linecap="round"/><path d="M777.1999999999998 -983.5999999999999 L812.4000000000001 -948.4000000000001" fill="none" stroke="#1d4ed8" stroke-width="11.2" stroke-linecap="round"/><path d="M839.5999999999999 253.58399999999983 L839.5999999999999 326.41600000000017" fill="none" stroke="#1d4ed8" stroke-width="11.2" stroke-linecap="round"/><path d="M846.0 416.55999999999995 L846.0 366.8000000000002" fill="none" stroke="#1d4ed8" stroke-width="6.4" stroke-linecap="round"/><path d="M812.4000000000001 -948.4000000000001 L812.4000000000001 194.0" fill="none" stroke="#1d4ed8" stroke-width="11.2" stroke-linecap="round"/><path d="M878.0 358.8000000000002 L878.0 416.55999999999995" fill="none" stroke="#1d4ed8" stroke-width="6.4" stroke-linecap="round"/><path d="M839.5999999999999 253.5999999999999 L839.5999999999999 253.58399999999983" fill="none" stroke="#1d4ed8" stroke-width="8.0" stroke-linecap="round"/><path d="M846.0 358.8000000000002 L878.0 358.8000000000002" fill="none" stroke="#1d4ed8" stroke-width="6.4" stroke-linecap="round"/><path d="M812.4000000000001 194.0 L839.5999999999999 253.58399999999983" fill="none" stroke="#1d4ed8" stroke-width="11.2" stroke-linecap="round"/><path d="M814.0 -1134.64 L777.1999999999998 -1134.64" fill="none" stroke="#1d4ed8" stroke-width="11.2" stroke-linecap="round"/><path d="M777.1999999999998 -1134.64 L777.1999999999998 -983.5999999999999" fill="none" stroke="#1d4ed8" stroke-width="11.2" stroke-linecap="round"/></g><text x="780" y="180" font-size="17">USB-C / U4 fan-out zoom</text><text x="30" y="715" font-size="20" fill="#b91c1c">Red: D+</text><text x="180" y="715" font-size="20" fill="#1d4ed8">Blue: D-</text><text x="30" y="754" font-size="18">Shorter connector loop plus two small D+ detours. No new components, layers or vias.</text><text x="30" y="781" font-size="16">Centerline path checks and DRC passed. This drawing does not prove USB signal integrity or enumeration.</text></g></svg>